#N canvas 691 103 567 372 10;
#X obj 204 55 tgl 15 0 empty empty empty 0 -6 0 8 -262144 -1 -1 0 1
;
#X text 222 55 <-- connection status;
#X obj 52 64 print;
#X obj 97 36 netreceive 7778;
#X floatatom 184 74 5 0 0 0 - - -;
#X obj 97 138 bng 15 250 50 0 empty empty empty 17 7 0 10 -262144 -1
-1;
#X obj 179 137 bng 15 250 50 0 empty empty empty 17 7 0 10 -262144
-1 -1;
#X obj 262 137 bng 15 250 50 0 empty empty empty 17 7 0 10 -262144
-1 -1;
#X obj 96 325 dac~;
#X obj 96 295 catch~ audioOut;
#X obj 97 113 route Startmoving Stopmoving;
#X obj 97 175 LoopSample Harley.wav;
#X obj 97 221 *~ 1;
#X floatatom 118 199 5 0 0 0 - - -;
#X obj 97 249 throw~ audioOut;
#X obj 252 221 *~ 1;
#X floatatom 273 199 5 0 0 0 - - -;
#X obj 252 249 throw~ audioOut;
#X obj 252 175 PlaySample Shoot.wav;
#X connect 3 0 2 0;
#X connect 3 0 10 0;
#X connect 3 1 0 0;
#X connect 3 1 4 0;
#X connect 5 0 11 0;
#X connect 6 0 11 1;
#X connect 6 0 18 0;
#X connect 9 0 8 0;
#X connect 9 0 8 1;
#X connect 10 0 5 0;
#X connect 10 1 6 0;
#X connect 10 2 7 0;
#X connect 11 0 12 0;
#X connect 12 0 14 0;
#X connect 13 0 12 1;
#X connect 15 0 17 0;
#X connect 16 0 15 1;
#X connect 18 0 15 0;
